<?xml version="1.0" standalone="no"?>
<!DOCTYPE svg PUBLIC "-//W3C//DTD SVG 20010904//EN"
 "http://www.w3.org/TR/2001/REC-SVG-20010904/DTD/svg10.dtd">
<svg version="1.0" xmlns="http://www.w3.org/2000/svg"
 width="700.000000pt" height="700.000000pt" viewBox="0 0 700.000000 700.000000"
 preserveAspectRatio="xMidYMid meet">
<metadata>
Created by potrace 1.11, written by Peter Selinger 2001-2013
</metadata>
<g transform="translate(0.000000,700.000000) scale(0.100000,-0.100000)"
fill="#000000" stroke="none">
<path d="M1175 4935 c-5 -2 -44 -11 -85 -20 -298 -68 -548 -317 -621 -621 -69
-285 16 -588 225 -797 128 -128 261 -194 481 -240 11 -3 -32 -6 -95 -7 -158
-3 -176 -5 -250 -30 -191 -64 -337 -230 -374 -425 -54 -286 105 -554 384 -647
64 -21 72 -22 920 -23 835 -2 899 0 1015 29 128 31 303 139 395 243 109 124
188 283 206 416 8 60 20 69 17 14 -2 -61 24 -202 49 -261 70 -165 200 -301
361 -376 141 -66 95 -63 1050 -65 635 -1 886 1 935 10 530 94 841 646 645
1145 -69 174 -206 331 -371 424 -71 40 -179 81 -238 90 -21 4 -48 9 -59 13
-11 3 -231 7 -490 7 l-470 1 -1 220 c-1 255 -7 319 -35 412 -69 226 -247 397
-484 468 -80 24 -252 28 -342 8 -200 -44 -386 -191 -476 -377 -72 -147 -71
-130 -71 -823 -1 -343 -4 -623 -8 -623 -3 0 -9 19 -13 43 -4 23 -19 74 -33
112 -100 273 -325 472 -605 535 -43 10 -80 20 -82 22 -2 1 58 4 133 4 120 1
147 5 216 28 234 80 383 283 387 529 4 261 -184 498 -439 552 -55 12 -216 15
-917 14 -467 0 -854 -2 -860 -4z"/>
</g>
</svg>
