<?xml version="1.0" encoding="UTF-8" standalone="no"?><!DOCTYPE svg PUBLIC "-//W3C//DTD SVG 1.1//EN" "http://www.w3.org/Graphics/SVG/1.1/DTD/svg11.dtd"><svg width="100%" height="100%" viewBox="0 0 31 31" version="1.1" xmlns="http://www.w3.org/2000/svg" xmlns:xlink="http://www.w3.org/1999/xlink" xml:space="preserve" xmlns:serif="http://www.serif.com/" style="fill-rule:evenodd;clip-rule:evenodd;stroke-linejoin:round;stroke-miterlimit:2;"><path d="M25.011,21.6c2.064,0 3.744,-1.681 3.744,-3.744c0,-2.063 -1.68,-3.744 -3.744,-3.744l-3.744,0l0,-1.872c0,-1.722 -1.398,-3.12 -3.12,-3.12c-1.722,0 -3.12,1.398 -3.12,3.12l0,6.24c0,1.722 1.398,3.12 3.12,3.12l6.864,0Zm-13.728,0c2.064,0 3.744,-1.681 3.744,-3.744c0,-2.063 -1.68,-3.744 -3.744,-3.744l1.248,0c1.381,0 2.496,-1.115 2.496,-2.496c0,-1.381 -1.115,-2.496 -2.496,-2.496l-6.822,0c-2.064,0 -3.744,1.681 -3.744,3.744c0,2.063 1.68,3.744 3.744,3.744l-1.248,0c-1.381,0 -2.496,1.115 -2.496,2.496c0,1.381 1.115,2.496 2.496,2.496l6.822,0Z" style="fill:#333;fill-rule:nonzero;"/></svg>